<svg width="22" height="19" viewBox="0 0 22 19" fill="none" xmlns="http://www.w3.org/2000/svg">
<path opacity="0.65" d="M8.45339 12.0991C8.13451 11.7831 7.88167 11.4069 7.70962 10.9922C7.53756 10.5776 7.44971 10.1328 7.45119 9.68392C7.44994 9.00624 7.64981 8.34342 8.02549 7.77939C8.40116 7.21537 8.93576 6.7755 9.56158 6.51548C10.1874 6.25547 10.8763 6.187 11.5411 6.31874C12.2058 6.45048 12.8165 6.77652 13.2959 7.25556" stroke="white" stroke-width="0.8" stroke-linecap="round" stroke-linejoin="round"/>
<path opacity="0.65" d="M14.243 10.2925C14.1189 10.9765 13.7894 11.6066 13.2983 12.0986C12.8072 12.5907 12.1779 12.9216 11.4941 13.0471" stroke="white" stroke-width="0.8" stroke-linecap="round" stroke-linejoin="round"/>
<path opacity="0.65" d="M5.08675 15.4646C3.21663 13.9203 1.76213 11.9331 0.855469 9.68353C1.7729 7.42259 3.23769 5.42502 5.11821 3.8703C6.7436 2.53545 8.77549 1.79461 10.8786 1.77002C12.9914 1.79769 15.0313 2.54637 16.6604 3.89202" stroke="white" stroke-width="0.8" stroke-linecap="round" stroke-linejoin="round"/>
<path opacity="0.65" d="M18.9493 6.27441C19.7325 7.32938 20.3879 8.47337 20.902 9.6825C18.7703 14.6212 15.0038 17.5956 10.8785 17.5956C9.94576 17.5954 9.01922 17.4442 8.13477 17.1481" stroke="white" stroke-width="0.8" stroke-linecap="round" stroke-linejoin="round"/>
</svg>
